HIERARCHY
ROOT Hips
{
	OFFSET 0.000000 0.000000 0.000000
	CHANNELS 6 Xposition Yposition Zposition Zrotation Yrotation Xrotation 
	JOINT LeftUpLeg_virtual
	{
		OFFSET 0.000000 0.000000 0.000000
		CHANNELS 3 Zrotation Yrotation Xrotation
		JOINT LeftUpLeg
		{
			OFFSET 8.479694 -4.795517 -0.379053
			CHANNELS 3 Zrotation Yrotation Xrotation
			JOINT LeftLeg
			{
				OFFSET 0.485052 -32.551468 0.112863
				CHANNELS 3 Zrotation Yrotation Xrotation
				JOINT LeftFoot
				{
					OFFSET 0.438033 -32.635670 -3.012641
					CHANNELS 3 Zrotation Yrotation Xrotation
					JOINT LeftToeBase
					{
						OFFSET 0.970169 -13.225353 11.864223
						CHANNELS 3 Zrotation Yrotation Xrotation
						End Site
						{
							OFFSET 0.000000 0.000000 0.000000
						}
					}
				}
			}
		}
	}
	JOINT RightUpLeg_virtual
	{
		OFFSET 0.000000 0.000000 0.000000
		CHANNELS 3 Zrotation Yrotation Xrotation
		JOINT RightUpLeg
		{
			OFFSET -8.479694 -4.795517 -0.379053
			CHANNELS 3 Zrotation Yrotation Xrotation
			JOINT RightLeg
			{
				OFFSET -0.484100 -32.551483 0.112903
				CHANNELS 3 Zrotation Yrotation Xrotation
				JOINT RightFoot
				{
					OFFSET -0.438985 -32.635651 -3.012681
					CHANNELS 3 Zrotation Yrotation Xrotation
					JOINT RightToeBase
					{
						OFFSET -0.970169 -13.225354 11.864223
						CHANNELS 3 Zrotation Yrotation Xrotation
						End Site
						{
							OFFSET 0.000000 0.000000 0.000000
						}
					}
				}
			}
		}
	}
	JOINT Spine_virtual
	{
		OFFSET 0.000000 0.000000 0.000000
		CHANNELS 3 Zrotation Yrotation Xrotation
		JOINT Spine
		{
			OFFSET 0.000000 7.722015 1.166203
			CHANNELS 3 Zrotation Yrotation Xrotation
			JOINT Spine1
			{
				OFFSET 0.000000 12.024086 0.248766
				CHANNELS 3 Zrotation Yrotation Xrotation
				JOINT Spine2
				{
					OFFSET -0.000000 11.503036 -0.491240
					CHANNELS 3 Zrotation Yrotation Xrotation
					JOINT Neck_virtual
					{
						OFFSET 0.000000 0.000000 0.000000
						CHANNELS 3 Zrotation Yrotation Xrotation
						JOINT Neck
						{
							OFFSET 0.000000 18.430687 -3.123054
							CHANNELS 3 Zrotation Yrotation Xrotation
							JOINT Head
							{
								OFFSET -0.000000 9.051071 1.034021
								CHANNELS 3 Zrotation Yrotation Xrotation
								End Site
								{
									OFFSET 0.000000 0.000000 0.000000
								}
							}
						}
					}
					JOINT LeftShoulder_virtual
					{
						OFFSET 0.000000 0.000000 0.000000
						CHANNELS 3 Zrotation Yrotation Xrotation
						JOINT LeftShoulder
						{
							OFFSET 6.197824 13.665230 -4.064723
							CHANNELS 3 Zrotation Yrotation Xrotation
							JOINT LeftArm
							{
								OFFSET 7.778132 -0.187073 -1.709282
								CHANNELS 3 Zrotation Yrotation Xrotation
								JOINT LeftForeArm
								{
									OFFSET 21.954697 0.000000 -2.041093
									CHANNELS 3 Zrotation Yrotation Xrotation
									JOINT LeftHand
									{
										OFFSET 22.992908 0.000000 -0.870901
										CHANNELS 3 Zrotation Yrotation Xrotation
										End Site
										{
											OFFSET 0.000000 0.000000 0.000000
										}
									}
								}
							}
						}
					}
					JOINT RightShoulder_virtual
					{
						OFFSET 0.000000 0.000000 0.000000
						CHANNELS 3 Zrotation Yrotation Xrotation
						JOINT RightShoulder
						{
							OFFSET -6.197824 13.665230 -4.064723
							CHANNELS 3 Zrotation Yrotation Xrotation
							JOINT RightArm
							{
								OFFSET -7.778132 -0.187073 -1.709282
								CHANNELS 3 Zrotation Yrotation Xrotation
								JOINT RightForeArm
								{
									OFFSET -21.954697 0.000000 -2.041093
									CHANNELS 3 Zrotation Yrotation Xrotation
									JOINT RightHand
									{
										OFFSET -22.992908 0.000000 -0.870901
										CHANNELS 3 Zrotation Yrotation Xrotation
										End Site
										{
											OFFSET 0.000000 0.000000 0.000000
										}
									}
								}
							}
						}
					}
				}
			}
		}
	}
}
MOTION
Frames: 9
Frame Time: 0.033333
2.671928 81.447037 -10.124153 -179.921308 1.456711 -179.934244 -4.439639 -1.462269 8.759962 3.413268 7.162816 -25.040387 5.099274 5.224628 33.892642 -1.118889 -11.742614 -12.332238 0.000000 0.000000 0.000000 -0.716098 -2.231795 9.009905 1.707848 2.061423 -20.977813 -2.347686 3.492111 30.802022 7.485844 3.974990 -10.212535 0.000000 0.000000 0.000000 -0.688162 0.861013 -3.499743 -0.103466 -2.635140 -4.945631 -1.161076 -1.702197 8.446325 0.026180 -0.092692 -0.005901 -1.551270 -0.293421 8.061093 -3.830853 0.567934 -10.085656 0.000000 0.000000 0.000000 0.181284 0.276359 5.902856 -8.269688 1.074048 3.319555 -63.341310 -4.250427 16.883056 3.090429 -39.631722 7.421857 0.000000 0.000000 0.000000 -4.093061 1.869594 5.108174 26.145925 2.233874 6.953589 57.334063 -0.134230 19.986822 -5.891783 33.136840 -3.990416 0.000000 0.000000 0.000000 
2.720159 81.466782 -10.016542 -179.843799 1.206786 -179.896869 -4.555524 -1.673533 8.807114 3.228851 7.328649 -25.037940 4.936122 5.389062 34.189451 -1.498718 -12.128370 -12.590364 0.000000 0.000000 0.000000 -0.835735 -2.353117 9.059366 1.536700 2.113134 -20.990288 -2.557803 3.542400 31.166061 7.188637 3.554140 -10.281813 0.000000 0.000000 0.000000 -0.646788 0.800331 -3.500459 -0.083374 -2.602198 -5.012196 -1.139318 -1.709642 8.478819 0.032804 -0.123190 0.028838 -1.454882 -0.086461 8.133542 -3.716556 0.399751 -10.038870 0.000000 0.000000 0.000000 0.190103 0.119569 5.942877 -8.350295 0.945499 3.256108 -63.357893 -4.150695 17.075551 3.174390 -39.624325 7.318176 0.000000 0.000000 0.000000 -4.089054 1.738701 5.126900 25.972783 2.240040 6.793265 57.322527 0.072392 19.860566 -5.876512 33.320214 -3.972984 0.000000 0.000000 0.000000 
2.757105 81.473022 -9.863238 -179.862185 1.422677 -179.917182 -4.570064 -1.643888 8.809182 3.243380 7.392346 -25.108392 4.966992 5.428152 34.187481 -1.655649 -12.001749 -12.554207 0.000000 0.000000 0.000000 -0.823969 -2.389293 9.036370 1.546437 1.968326 -21.283238 -2.469508 3.639902 31.451518 7.285828 3.589333 -10.220916 0.000000 0.000000 0.000000 -0.659786 0.810094 -3.454718 -0.118511 -2.534303 -5.053301 -1.065799 -1.691712 8.507889 -0.037842 -0.095473 0.041148 -1.368610 -0.177937 8.183422 -3.664720 0.233179 -10.042798 0.000000 0.000000 0.000000 0.294235 0.139780 6.034324 -8.341906 0.789456 3.221875 -63.346726 -4.044838 17.249416 3.162865 -39.645877 7.345845 0.000000 0.000000 0.000000 -3.992547 1.732288 5.194570 25.864781 2.233686 6.764071 57.317103 0.562249 20.032385 -6.065486 33.732033 -4.211589 0.000000 0.000000 0.000000 
2.787922 81.475586 -9.703176 -179.904191 1.656903 -179.935542 -4.598390 -1.763876 8.874962 3.241489 7.473164 -25.185494 5.001368 5.492241 34.149891 -1.857788 -11.802594 -12.528742 0.000000 0.000000 0.000000 -0.841485 -2.532396 9.101694 1.586563 1.765519 -21.719435 -2.339928 3.833373 31.844026 7.390329 3.633455 -10.149571 0.000000 0.000000 0.000000 -0.688951 0.722548 -3.334827 -0.191189 -2.469513 -5.073894 -1.020063 -1.719449 8.530631 -0.009562 -0.124504 0.019138 -1.380022 -0.116198 8.255122 -3.556625 0.149751 -10.062364 0.000000 0.000000 0.000000 0.285519 0.233014 6.231887 -8.229593 0.607874 3.215218 -63.341801 -4.073617 17.597998 3.159620 -39.600303 7.256004 0.000000 0.000000 0.000000 -4.004911 1.792554 5.290924 25.785255 2.213540 6.593054 57.320341 1.012039 20.241013 -6.221306 34.125080 -4.443691 0.000000 0.000000 0.000000 
2.800149 81.483955 -9.518377 -179.925925 2.066620 -179.959133 -4.613047 -1.787428 9.019055 3.199120 7.655275 -25.315369 5.028229 5.544438 34.064981 -2.033468 -11.534837 -12.527666 0.000000 0.000000 0.000000 -0.849557 -2.674416 9.216679 1.610304 1.631524 -22.266929 -2.172411 4.093066 32.306317 7.499152 3.682455 -9.957710 0.000000 0.000000 0.000000 -0.656146 0.696617 -3.148700 -0.272579 -2.288987 -5.117786 -1.025489 -1.688687 8.601069 -0.048344 -0.079216 0.035561 -1.319545 -0.207351 8.305014 -3.424513 -0.131592 -10.012968 0.000000 0.000000 0.000000 0.339442 0.226941 6.350341 -8.083896 0.222256 3.189059 -63.238276 -4.191141 17.760041 3.069772 -39.548663 7.297440 0.000000 0.000000 0.000000 -3.954029 1.739195 5.473007 25.724272 2.106946 6.288307 57.361500 1.494461 20.380318 -6.194615 34.377609 -4.510649 0.000000 0.000000 0.000000 
2.832018 81.495155 -9.277267 -179.979432 2.466728 -179.965021 -4.598099 -1.839798 9.169148 3.104878 7.799982 -25.519385 5.039660 5.558521 33.945951 -2.137367 -11.219661 -12.582446 0.000000 0.000000 0.000000 -0.849750 -2.758335 9.333386 1.626652 1.480160 -22.889082 -2.000351 4.290290 32.782108 7.583839 3.704161 -9.745230 0.000000 0.000000 0.000000 -0.639736 0.683524 -2.926751 -0.354516 -2.081247 -5.081542 -1.038896 -1.676655 8.678888 -0.022200 -0.030223 -0.003718 -1.371044 -0.265603 8.481270 -3.267114 -0.652897 -9.906445 0.000000 0.000000 0.000000 0.267052 0.213810 6.592760 -7.819384 -0.247571 3.273722 -63.068007 -4.548690 17.910353 2.980845 -39.492137 7.349225 0.000000 0.000000 0.000000 -4.003548 1.791996 5.699492 25.834135 2.076115 6.134341 57.300718 2.038742 20.713312 -6.544676 34.593604 -5.087186 0.000000 0.000000 0.000000 
2.880866 81.520836 -8.964137 179.981304 2.869526 -179.959010 -4.561585 -1.940591 9.295651 3.000545 7.761848 -25.766335 5.059055 5.574012 33.710726 -2.150425 -10.845287 -12.508388 0.000000 0.000000 0.000000 -0.823417 -2.748736 9.433077 1.588010 1.276703 -23.545907 -1.801750 4.479431 33.130447 7.639815 3.721771 -9.406756 0.000000 0.000000 0.000000 -0.592668 0.732686 -2.747263 -0.390035 -1.819501 -4.971340 -1.096686 -1.661764 8.876675 -0.041063 -0.022723 0.013763 -1.347979 -0.051166 8.608081 -3.126855 -0.508938 -9.675764 0.000000 0.000000 0.000000 0.282490 0.212897 6.736636 -7.400279 -0.889564 3.377111 -62.842440 -5.003867 17.965860 2.917180 -39.345250 7.353656 0.000000 0.000000 0.000000 -3.967485 1.752915 5.829982 25.730322 2.061791 5.900600 57.226532 2.623487 20.993884 -6.753865 34.860073 -5.499886 0.000000 0.000000 0.000000 
2.929652 81.557068 -8.575296 179.999185 3.349985 179.984459 -4.527444 -1.921845 9.406103 2.881435 7.659223 -25.996327 5.078345 5.583026 33.500049 -2.094770 -10.472423 -12.324301 0.000000 0.000000 0.000000 -0.740116 -2.534940 9.489184 1.483454 1.060832 -24.194958 -1.584607 4.659023 33.511654 7.612902 3.709466 -9.007842 0.000000 0.000000 0.000000 -0.487503 0.963534 -2.614932 -0.345433 -1.553170 -4.649997 -1.145115 -1.652126 9.046014 -0.007575 -0.000306 0.028202 -1.363245 -0.341086 8.872431 -3.081913 -1.006528 -9.435660 0.000000 0.000000 0.000000 0.231876 0.124054 6.977791 -6.908585 -1.744139 3.497782 -62.675537 -5.553156 17.913797 2.842682 -39.178313 7.360280 0.000000 0.000000 0.000000 -4.044677 1.643737 6.112196 25.697796 2.097615 5.522997 56.801957 2.947151 21.069496 -6.793324 35.530982 -5.817281 0.000000 0.000000 0.000000 
2.997862 81.591278 -8.121116 179.984186 3.928784 179.978995 -4.459129 -1.612145 9.417611 2.809824 7.364130 -26.296317 5.141795 5.535056 33.378694 -1.919772 -10.018011 -12.068518 0.000000 0.000000 0.000000 -0.591113 -2.190609 9.450749 1.363593 0.763565 -24.911940 -1.313939 4.796984 33.909393 7.579580 3.790297 -8.584835 0.000000 0.000000 0.000000 -0.462108 1.277330 -2.605620 -0.254300 -1.335633 -4.200148 -1.138531 -1.694058 9.333254 -0.057231 -0.007680 0.029073 -1.364072 -0.339387 9.223085 -2.998716 -1.389495 -9.061982 0.000000 0.000000 0.000000 0.191631 0.083891 7.206079 -6.358395 -2.662192 3.575817 -62.615329 -6.190156 17.649448 2.588737 -38.954392 7.608290 0.000000 0.000000 0.000000 -4.094435 1.560619 6.433241 25.753759 2.259900 5.313877 56.256296 3.350769 21.257798 -6.940077 36.445558 -6.296654 0.000000 0.000000 0.000000 
